<?xml version="1.0" encoding="utf-8"?>
<svg xmlns="http://www.w3.org/2000/svg" viewBox="1743.00 1169.40 391.10 203.30" overflow="visible">
<style type="text/css">.st0{fill:#CDE4FF;}.st1{fill:#FFFFFF;}.st2{fill:#EFFAFF;}</style>
<g>
	<path class="st0" d="M2096.6,1297.2c4.3-15.6,2.3-33.9-8.8-45.7c-11.1-11.8-32.3-14.1-43.3-2.2c-3-15.5-27.8-20.3-36.3-7
		c0.5-35.5-35.4-66.9-70.5-61.8c-35.1,5.1-60.5,45.4-50,79.3c-7.4-4.7-18.6-1-21.9,7.1c-12.2-14-33.3-19.4-50.7-12.8
		c-17.4,6.5-29.8,24.5-29.7,43c-10.1-4.9-27.5-0.8-31.9,9.5c-4.5,10.3,1.1,23.8,11.6,27.8c-4.5-0.1-6.5,9.3-3.6,12.7
		c2.9,3.4,7.8,4.2,12.3,4.7c28.3,3.1,58.8,5.8,83.5-8.5c51.4,22.2,107.6,23.4,156.8-3.3c8.1,8.2,21.4,10.7,32,6
		c8.6,5.4,18.7,8.1,28.8,9.1c12.1,1.2,25-0.1,35.4-6.5c10.4-6.4,17.8-18.5,16.1-30.6C2124.5,1305.9,2108.4,1294.1,2096.6,1297.2z"/>
	<path class="st1" d="M2098.5,1286.3c1-12.7-2.1-25.7-10.6-34.8c-11.1-11.8-32.3-14.1-43.3-2.2c-3-15.5-27.8-20.3-36.3-7
		c0.5-35.5-35.4-66.9-70.5-61.8c-35.1,5.1-60.5,45.4-50,79.3c-7.4-4.7-18.6-1-21.9,7.1c-12.2-14-33.3-19.4-50.7-12.8
		c-17.4,6.5-29.8,24.5-29.7,43c-10.1-4.9-27.5-0.8-31.9,9.5c-1.5,3.5-1.9,7.4-1.2,11.2c5.9-3.8,14.4-3.9,19.8,0.7
		c3.1-6,12.9-6.9,16.9-1.4c1.2-13,13.2-23.6,26.2-25.1c13-1.5,26.1,5,34.6,15c0.3-7.3,7.8-13.4,15-12.3
		c5.2-14.1,24.2-21.1,37.4-13.7c-0.6-8.6,1.7-17.6,5-25.5c3.2-8,9.5-15,17.7-17.8c8.2-2.7,18.2-0.4,23.2,6.6c-0.7-4,2.7-7.8,6.6-9
		c18.1-5.4,20.5,10.1,23.1,23.3c9.8-7.1,25.7-3,30.9,7.9c3.9-5.5,12.6-6.3,19.3-5.5c6.7,0.7,12.8,5.4,15.4,11.6
		c7.1-10.8,22.9-13.4,34.7-8C2087.1,1268.8,2094,1277,2098.5,1286.3z"/>
	<path class="st1" d="M2123.5,1334.1c-6.2,2.7-13.2,3.6-19.9,3.1c-10-0.7-19.6-4-29-7.3c-17,9.2-39.1,7.9-54.9-3.1
		c-6.4,4.3-15.8,3.5-21.3-1.9c-14.8,8.5-31.4,14.6-48.4,14.6c-17,0-33-6.7-43.7-20c-17.9,16.7-45.9,21.6-68.4,11.8
		c-3.7,4.6-11.9,4.2-15.1-0.7c-15,16.2-39.4,22.7-60.7,17.1c2.9,2.9,7.5,3.6,11.7,4c28.3,3.1,58.8,5.8,83.5-8.5
		c51.4,22.2,107.6,23.4,156.8-3.3c8.1,8.2,21.4,10.7,32,6c8.6,5.4,18.7,8.1,28.8,9.1c12.1,1.2,25-0.1,35.4-6.5
		C2115.9,1345.1,2120.6,1340,2123.5,1334.1z"/>
	<path class="st0" d="M1924.4,1204c3.2-3.3,7.6-5.6,12.2-5.5c4.7,0.1,9.3,2.9,11.5,7.1c4.1-3.5,11.5-1.7,13.5,3.4
		c2.5-3,7.5-3.6,10.7-1.4c3.3,2.2,4.6,6.8,3.2,10.5c-3.1-1.8-7.1-2.1-10.4-0.6c-1.1,0.5-2.3,1.2-3.5,1c-1-0.1-1.8-0.7-2.5-1.3
		c-3.3-2.4-6.9-4.3-10.9-5.1c-6.9-1.3-14.4,1.1-19.1,6.3c-0.8,0.9-1.6,1.9-2.8,2.5c-2.9,1.4-7.5-0.8-9.1,2c0.3-0.5-0.1-2.3-0.1-2.9
		c0-1,0.1-2,0.2-2.9c0.2-1.2,0.4-2.3,0.9-3.4C1919.8,1210.2,1921.7,1206.8,1924.4,1204z"/>
</g>
</svg>
